<?xml version="1.0" standalone="no"?>
<!DOCTYPE svg PUBLIC "-//W3C//DTD SVG 20010904//EN"
 "http://www.w3.org/TR/2001/REC-SVG-20010904/DTD/svg10.dtd">
<svg version="1.0" xmlns="http://www.w3.org/2000/svg"
 width="960.000000pt" height="960.000000pt" viewBox="0 0 960.000000 960.000000"
 preserveAspectRatio="xMidYMid meet">
<metadata>
Created by potrace 1.14, written by Peter Selinger 2001-2017
</metadata>
<g transform="translate(0.000000,960.000000) scale(0.100000,-0.100000)"
fill="#000000" stroke="none">
<path d="M5196 9362 c-3 -2 -31 -5 -63 -7 -32 -2 -58 -4 -58 -5 0 -1 -47 -3
-105 -6 -58 -2 -132 -6 -165 -8 -33 -2 -81 -4 -107 -5 -44 -1 -48 -3 -57 -33
-5 -18 -21 -64 -35 -103 -15 -38 -36 -97 -47 -130 -12 -33 -30 -80 -40 -105
-11 -25 -24 -54 -28 -65 -5 -11 -16 -37 -25 -58 -9 -21 -16 -44 -16 -52 0 -8
-4 -15 -9 -15 -5 0 -12 -12 -15 -26 -4 -14 -29 -73 -56 -130 -28 -57 -51 -107
-52 -111 -2 -5 -22 -44 -45 -87 -24 -44 -43 -85 -43 -92 0 -7 -4 -14 -8 -16
-4 -1 -25 -34 -46 -73 -32 -59 -142 -245 -196 -331 -37 -59 -141 -207 -205
-293 -103 -138 -109 -145 -120 -157 -5 -6 -25 -29 -43 -52 -48 -58 -65 -78
-135 -157 -81 -91 -318 -326 -392 -390 -32 -27 -63 -55 -69 -60 -18 -17 -182
-149 -210 -169 -15 -11 -37 -28 -48 -38 -12 -10 -24 -18 -28 -18 -3 0 -15 -8
-26 -18 -10 -10 -48 -37 -84 -60 -36 -23 -70 -45 -76 -51 -23 -19 -193 -121
-202 -121 -6 0 -12 -4 -14 -8 -2 -7 -65 -43 -188 -109 -14 -7 -31 -13 -37 -13
-7 0 -13 -3 -13 -8 0 -4 -21 -18 -47 -30 -27 -13 -57 -29 -68 -35 -159 -94
-213 -127 -285 -178 -86 -60 -213 -157 -254 -194 -13 -11 -43 -37 -67 -58 -54
-48 -229 -217 -229 -222 0 -2 -19 -23 -42 -47 -24 -24 -61 -66 -83 -93 -22
-27 -50 -60 -62 -73 -13 -12 -23 -25 -23 -29 0 -5 -38 -52 -74 -93 -7 -8 -19
-26 -26 -40 -7 -14 -16 -27 -20 -30 -11 -7 -143 -209 -171 -261 -13 -24 -26
-46 -29 -49 -3 -3 -12 -18 -20 -35 -8 -16 -17 -32 -20 -35 -3 -3 -30 -54 -60
-115 -29 -60 -56 -112 -59 -115 -3 -3 -8 -14 -9 -25 -2 -11 -8 -22 -13 -23 -5
-2 -7 -7 -4 -12 3 -5 -2 -16 -11 -24 -8 -9 -13 -16 -10 -16 2 0 -13 -44 -35
-97 -43 -107 -104 -283 -169 -490 l-41 -133 27 -49 c15 -28 41 -63 58 -79 17
-16 51 -53 76 -82 85 -101 283 -295 384 -375 68 -54 205 -150 244 -170 20 -11
40 -24 43 -28 3 -5 8 -8 10 -6 2 1 22 -7 44 -18 93 -47 232 -87 300 -85 66 1
169 58 195 107 7 14 17 25 21 25 4 0 16 17 27 38 45 87 85 158 93 168 5 6 6
14 2 17 -3 4 -1 7 5 7 7 0 12 4 12 9 0 5 24 51 53 102 29 52 56 101 60 109 4
8 13 24 20 35 7 11 39 65 71 120 33 55 65 103 70 107 6 4 7 8 3 8 -5 0 7 23
27 50 20 28 36 52 36 55 0 5 91 146 100 155 3 3 27 39 55 80 27 41 53 80 58
85 4 6 44 60 89 120 76 103 121 159 236 295 49 57 339 350 382 385 14 11 57
45 95 75 39 30 72 57 75 60 3 3 19 14 35 26 17 11 54 37 82 57 29 20 56 37 61
37 5 0 17 8 28 18 21 17 33 25 164 94 111 59 273 147 290 158 8 5 51 31 95 57
44 26 83 51 86 56 3 5 8 7 10 6 7 -5 257 161 344 228 6 5 44 33 85 63 41 30
84 62 95 72 21 17 78 64 139 113 21 17 50 41 65 55 15 14 61 54 102 90 149
131 492 483 571 585 12 17 27 35 33 40 6 6 31 35 56 65 24 30 48 60 54 67 5 7
15 18 20 25 6 8 31 40 56 73 95 124 209 285 209 295 0 5 5 10 10 10 6 0 10 6
10 14 0 8 3 16 8 18 9 4 52 65 52 73 0 4 11 21 25 39 14 18 25 38 25 44 0 7 5
12 10 12 6 0 10 7 10 15 0 8 5 15 10 15 6 0 10 4 10 9 0 5 17 38 38 72 36 60
54 90 123 214 59 105 188 365 181 365 -4 0 -1 4 6 9 7 4 15 14 16 22 2 8 8 26
14 41 30 74 31 207 0 323 -5 22 -10 41 -9 42 1 3 -17 43 -74 168 -61 135 -149
310 -157 313 -4 2 -8 8 -8 13 0 28 -126 150 -199 193 -71 42 -192 84 -261 92
-25 3 -56 8 -70 11 -29 6 -378 11 -384 5z"/>
<path d="M7209 8126 c-2 -3 -17 -7 -32 -10 -106 -19 -235 -85 -311 -160 -51
-49 -156 -191 -156 -210 0 -2 -25 -41 -55 -86 -30 -45 -55 -85 -55 -90 0 -5
-4 -10 -8 -12 -4 -1 -39 -48 -77 -103 -117 -168 -299 -407 -316 -413 -5 -2 -9
-8 -9 -13 0 -8 -12 -24 -55 -73 -11 -13 -42 -49 -70 -82 -27 -32 -61 -70 -75
-85 -14 -15 -54 -60 -90 -100 -92 -102 -309 -318 -425 -424 -54 -49 -111 -102
-128 -117 -16 -15 -47 -42 -70 -60 -22 -18 -51 -42 -64 -53 -12 -11 -39 -33
-59 -50 -20 -16 -41 -34 -48 -40 -6 -5 -38 -30 -71 -55 -32 -25 -67 -52 -76
-60 -9 -8 -40 -31 -69 -50 -28 -19 -58 -41 -66 -49 -37 -34 -426 -291 -440
-291 -7 0 -14 -4 -16 -9 -3 -10 -60 -46 -100 -63 -16 -7 -28 -16 -28 -20 0 -4
-4 -8 -9 -8 -4 0 -51 -25 -104 -55 -52 -30 -99 -55 -102 -55 -4 0 -20 -9 -36
-21 -16 -11 -29 -17 -29 -12 0 4 -4 4 -8 -2 -4 -5 -59 -37 -122 -69 -63 -32
-122 -64 -130 -70 -8 -6 -31 -20 -50 -30 -39 -21 -287 -185 -316 -210 -11 -8
-46 -37 -79 -63 -128 -101 -297 -254 -368 -331 -12 -13 -46 -49 -77 -82 -128
-136 -258 -300 -381 -484 -56 -82 -103 -156 -107 -165 -3 -9 -10 -20 -15 -26
-35 -40 -172 -313 -186 -370 -20 -78 -13 -261 15 -458 21 -148 80 -291 150
-361 37 -38 141 -103 171 -107 5 -1 18 -5 31 -10 13 -5 26 -9 28 -9 11 0 140
-65 158 -80 22 -17 96 -93 117 -119 8 -10 30 -48 49 -85 19 -37 44 -76 57 -86
12 -9 20 -20 17 -22 -6 -7 43 -26 84 -33 46 -8 46 -8 52 -6 3 2 20 4 39 7 50
6 140 59 183 108 38 42 104 156 90 156 -4 0 -2 4 4 8 9 6 80 132 118 209 6 13
15 23 19 23 5 0 5 5 2 10 -3 6 -1 10 4 10 6 0 11 4 11 9 0 12 63 115 73 119 4
2 7 10 7 18 0 8 5 14 11 14 5 0 8 4 5 9 -3 4 3 16 14 26 11 10 20 22 20 26 0
7 87 135 118 174 4 6 19 26 32 45 13 19 29 41 35 47 5 7 18 23 27 35 47 61
145 184 158 198 8 9 42 47 75 86 113 130 437 446 541 526 16 13 34 27 40 33
23 21 81 67 159 125 44 33 85 64 90 68 6 4 15 10 20 12 6 1 15 8 20 15 11 13
331 225 340 225 3 0 24 12 48 27 49 31 143 84 207 115 25 13 47 26 48 31 2 4
11 7 21 7 9 0 22 5 28 11 6 6 39 25 74 43 92 48 151 80 163 89 6 4 56 35 111
68 133 80 126 76 229 144 159 106 354 248 368 269 4 6 8 7 8 2 0 -6 6 -3 13 5
6 9 48 44 92 79 44 35 87 71 96 79 9 9 42 39 74 66 225 193 515 495 715 744
19 24 40 48 45 55 6 6 37 47 70 91 33 44 64 84 68 90 50 63 237 342 237 353 0
5 7 15 15 22 14 11 43 68 61 115 20 55 36 175 23 175 -7 0 -3 51 6 78 2 6 1
12 -3 12 -4 0 -7 33 -8 73 -1 75 -10 193 -20 262 -3 22 -7 54 -9 70 -5 50 -35
182 -50 225 -8 22 -14 43 -14 46 0 2 -15 37 -35 77 -36 74 -96 146 -153 185
-38 27 -142 82 -163 88 -8 2 -55 18 -105 35 -80 29 -104 32 -221 36 -72 2
-133 1 -135 -1z"/>
<path d="M8629 6606 c-2 -2 -27 -7 -54 -10 -68 -7 -204 -59 -225 -85 -3 -3
-23 -19 -45 -36 -43 -31 -115 -101 -115 -111 0 -4 -6 -12 -13 -18 -8 -6 -65
-83 -128 -171 -62 -88 -119 -167 -125 -175 -7 -8 -66 -83 -132 -166 -117 -146
-168 -207 -224 -266 -16 -16 -28 -30 -28 -33 0 -7 -130 -143 -282 -296 -82
-82 -148 -147 -148 -145 0 2 -27 -23 -59 -55 -33 -33 -61 -59 -64 -59 -3 0
-23 -17 -44 -37 -21 -21 -60 -56 -87 -78 -27 -22 -56 -47 -66 -55 -55 -47
-117 -98 -141 -115 -33 -24 -82 -63 -171 -133 -38 -29 -68 -49 -68 -45 0 4 -4
3 -8 -2 -12 -17 -149 -115 -160 -115 -6 0 -12 -4 -14 -8 -4 -12 -155 -112
-168 -112 -5 0 -10 -4 -10 -10 0 -5 -7 -10 -15 -10 -8 0 -15 -3 -15 -8 0 -4
-9 -12 -19 -17 -80 -41 -111 -60 -111 -67 0 -4 -4 -8 -9 -8 -5 0 -43 -20 -84
-44 -82 -49 -159 -91 -317 -173 -223 -117 -248 -132 -430 -252 -47 -31 -89
-59 -95 -64 -13 -10 -74 -56 -115 -87 -18 -14 -41 -32 -51 -40 -9 -8 -34 -28
-55 -45 -75 -60 -110 -93 -253 -235 -159 -158 -241 -247 -241 -261 0 -5 -3 -9
-8 -9 -4 0 -32 -32 -62 -71 -30 -39 -62 -79 -70 -89 -8 -10 -22 -28 -30 -40
-8 -12 -20 -28 -26 -34 -11 -12 -32 -42 -103 -151 -22 -33 -43 -64 -48 -70 -5
-5 -12 -17 -16 -25 -4 -8 -16 -28 -27 -45 -11 -16 -23 -37 -27 -45 -3 -8 -9
-17 -12 -20 -8 -7 -59 -102 -118 -220 -27 -52 -52 -98 -56 -101 -5 -3 -9 -10
-9 -15 0 -5 -9 -29 -20 -54 -11 -25 -30 -67 -43 -95 -24 -55 -125 -317 -129
-337 -2 -7 -6 -22 -10 -33 -23 -59 -27 -72 -31 -95 -16 -77 -20 -172 -9 -235
3 -16 5 -37 6 -45 0 -8 5 -21 11 -27 5 -7 7 -13 4 -13 -10 0 29 -104 68 -181
48 -97 185 -300 243 -361 25 -27 67 -62 92 -78 25 -16 50 -33 55 -37 13 -10
100 -53 108 -53 3 0 18 -5 34 -12 15 -6 33 -12 38 -13 28 -7 124 -25 150 -30
17 -2 79 -13 139 -24 60 -11 113 -18 117 -15 4 2 10 0 14 -5 3 -5 13 -9 23 -9
9 0 31 -2 47 -6 39 -8 88 -17 177 -30 21 -3 41 -7 45 -8 4 -1 26 2 48 6 52 10
91 52 100 107 4 24 13 58 20 74 7 17 27 71 45 120 17 50 38 104 45 120 7 17
21 54 31 83 10 28 22 52 26 52 5 0 8 11 8 25 0 14 5 25 10 25 6 0 10 7 10 15
0 14 9 35 32 75 4 8 11 22 14 30 8 22 63 141 79 170 75 144 108 205 130 241
15 23 28 47 29 53 1 6 18 36 37 66 20 30 44 70 54 87 11 18 23 33 27 33 4 0 8
6 8 13 0 18 202 313 229 334 9 7 12 13 7 13 -5 0 1 8 12 19 12 10 22 23 22 29
0 6 3 12 8 14 4 2 36 39 72 83 186 232 421 477 630 655 35 30 77 67 92 82 15
14 28 25 28 22 0 -4 28 18 54 41 73 68 548 395 572 395 3 0 18 9 32 19 15 10
54 33 87 50 33 18 93 50 133 71 39 22 72 36 72 32 0 -4 4 -2 8 4 4 5 39 28 77
49 103 56 304 194 382 261 11 11 41 35 64 54 103 83 298 274 414 405 33 37 65
72 70 79 79 88 289 371 373 501 29 44 58 89 66 100 8 11 14 23 13 26 -1 3 10
22 26 42 15 19 27 38 27 42 0 3 15 29 33 58 42 67 209 397 232 462 11 28 21
52 24 55 17 15 69 186 65 213 -1 9 2 17 7 17 5 0 4 11 -1 25 -6 17 -6 25 1 25
6 0 7 4 4 10 -3 5 -8 31 -11 57 -8 65 -52 194 -73 213 -4 3 -12 17 -20 33 -8
15 -18 27 -23 27 -4 0 -8 5 -8 10 0 33 -155 153 -272 210 -27 13 -48 27 -48
32 0 4 -5 8 -11 8 -5 0 -36 12 -67 26 -83 38 -162 65 -203 69 -20 1 -45 6 -56
9 -11 3 -21 4 -24 2z"/>
</g>
</svg>
